#Comment line ignore any data following # character 
#Hierarchical Translation and Rotation (.htr) file 
[Header]	
#Header keywords are followed by a single value 
FileType HTR		#Single word string
DataType HTRS		#Translation followed by rotation and scale data
FileVersion 1		#integer
NumSegments 64		#integer
NumFrames 3		#integer
DataFrameRate 30		#integer, data frame rate in this file
EulerRotationOrder ZYX
CalibrationUnits mm
RotationUnits Degrees
GlobalAxisofGravity Y
BoneLengthAxis Y
ScaleFactor 1.00
[SegmentNames&Hierarchy]
#CHILD	PARENT
Pinger_Root GLOBAL
Pelvis Pinger_Root
L_Hip Pelvis
R_Hip Pelvis
Rear_Leg01 Pelvis
Spine1 Pelvis
L_Leg01 L_Hip
L_Leg02 L_Leg01
L_Leg03 L_Leg02
L_Foot L_Leg03
L_Toe1_01 L_Foot
L_Toe2_01 L_Foot
L_Toe3_01 L_Foot
planeAlignerLeft L_Foot
L_Toe1_02 L_Toe1_01
L_Toe1_03 L_Toe1_02
L_Toe2_02 L_Toe2_01
L_Toe2_03 L_Toe2_02
L_Toe3_02 L_Toe3_01
L_Toe3_03 L_Toe3_02
planeLockWeightLeft planeAlignerLeft
R_Leg01 R_Hip
R_Leg02 R_Leg01
R_Leg03 R_Leg02
R_Foot R_Leg03
planeAlignerRight R_Foot
R_Toe1_01 R_Foot
R_Toe2_01 R_Foot
R_Toe3_01 R_Foot
planeLockWeightRight planeAlignerRight
R_Toe1_02 R_Toe1_01
R_Toe1_03 R_Toe1_02
R_Toe2_02 R_Toe2_01
R_Toe2_03 R_Toe2_02
R_Toe3_02 R_Toe3_01
R_Toe3_03 R_Toe3_02
Rear_Leg02 Rear_Leg01
Rear_Leg03 Rear_Leg02
Rear_Leg04 Rear_Leg03
Rear_Foot Rear_Leg04
planeAlignerCenter Rear_Foot
Rear_Toe1_01 Rear_Foot
Rear_Toe2_01 Rear_Foot
Rear_Toe3_01 Rear_Foot
planeLockWeightCenter planeAlignerCenter
Rear_Toe1_02 Rear_Toe1_01
Rear_Toe1_03 Rear_Toe1_02
Rear_Toe2_02 Rear_Toe2_01
Rear_Toe2_03 Rear_Toe2_02
Rear_Toe3_02 Rear_Toe3_01
Rear_Toe3_03 Rear_Toe3_02
Back_Bone Spine1
Head Spine1
Motor_Bone Back_Bone
Ping_Mechanism Back_Bone
BN_LookIK Head
bottomMouth Head
L_Mouth01 Head
L_mouthFront Head
mouthGun Head
R_Mouth01 Head
R_mouthFront Head
TopMouth Head
weapon_bone Head
[BasePosition]
#SegmentName Tx, Ty, Tz, Rx, Ry, Rz, BoneLength
Pinger_Root 0.000000 0.000000 0.000000 -90.000000 0.000000 0.000000 10.000000 
Pelvis 0.000000 0.000000 0.000000 0.000000 0.000000 0.000000 10.000000 
L_Hip 0.000000 0.000000 0.000000 0.000000 0.000000 0.000000 10.000000 
R_Hip 0.000000 0.000000 0.000000 0.000000 0.000000 0.000000 10.000000 
Rear_Leg01 0.000000 0.000000 0.000000 0.000000 0.000000 0.000000 10.000000 
Spine1 0.000000 0.000000 0.000000 0.000000 0.000000 0.000000 10.000000 
L_Leg01 0.000000 0.000000 0.000000 0.000000 0.000000 0.000000 10.000000 
L_Leg02 0.000000 0.000000 0.000000 0.000000 0.000000 0.000000 10.000000 
L_Leg03 0.000000 0.000000 0.000000 0.000000 0.000000 0.000000 10.000000 
L_Foot 0.000000 0.000000 0.000000 0.000000 0.000000 0.000000 10.000000 
L_Toe1_01 0.000000 0.000000 0.000000 0.000000 0.000000 0.000000 10.000000 
L_Toe2_01 0.000000 0.000000 0.000000 0.000000 0.000000 0.000000 10.000000 
L_Toe3_01 0.000000 0.000000 0.000000 0.000000 0.000000 0.000000 10.000000 
planeAlignerLeft 0.000000 0.000000 0.000000 0.000000 0.000000 0.000000 10.000000 
L_Toe1_02 0.000000 0.000000 0.000000 0.000000 0.000000 0.000000 10.000000 
L_Toe1_03 0.000000 0.000000 0.000000 0.000000 0.000000 0.000000 10.000000 
L_Toe2_02 0.000000 0.000000 0.000000 0.000000 0.000000 0.000000 10.000000 
L_Toe2_03 0.000000 0.000000 0.000000 0.000000 0.000000 0.000000 10.000000 
L_Toe3_02 0.000000 0.000000 0.000000 0.000000 0.000000 0.000000 10.000000 
L_Toe3_03 0.000000 0.000000 0.000000 0.000000 0.000000 0.000000 10.000000 
planeLockWeightLeft 0.000000 0.000000 0.000000 0.000000 0.000000 0.000000 10.000000 
R_Leg01 0.000000 0.000000 0.000000 0.000000 0.000000 0.000000 10.000000 
R_Leg02 0.000000 0.000000 0.000000 0.000000 0.000000 0.000000 10.000000 
R_Leg03 0.000000 0.000000 0.000000 0.000000 0.000000 0.000000 10.000000 
R_Foot 0.000000 0.000000 0.000000 0.000000 0.000000 0.000000 10.000000 
planeAlignerRight 0.000000 0.000000 0.000000 0.000000 0.000000 0.000000 10.000000 
R_Toe1_01 0.000000 0.000000 0.000000 0.000000 0.000000 0.000000 10.000000 
R_Toe2_01 0.000000 0.000000 0.000000 0.000000 0.000000 0.000000 10.000000 
R_Toe3_01 0.000000 0.000000 0.000000 0.000000 0.000000 0.000000 10.000000 
planeLockWeightRight 0.000000 0.000000 0.000000 0.000000 0.000000 0.000000 10.000000 
R_Toe1_02 0.000000 0.000000 0.000000 0.000000 0.000000 0.000000 10.000000 
R_Toe1_03 0.000000 0.000000 0.000000 0.000000 0.000000 0.000000 10.000000 
R_Toe2_02 0.000000 0.000000 0.000000 0.000000 0.000000 0.000000 10.000000 
R_Toe2_03 0.000000 0.000000 0.000000 0.000000 0.000000 0.000000 10.000000 
R_Toe3_02 0.000000 0.000000 0.000000 0.000000 0.000000 0.000000 10.000000 
R_Toe3_03 0.000000 0.000000 0.000000 0.000000 0.000000 0.000000 10.000000 
Rear_Leg02 0.000000 0.000000 0.000000 0.000000 0.000000 0.000000 10.000000 
Rear_Leg03 0.000000 0.000000 0.000000 0.000000 0.000000 0.000000 10.000000 
Rear_Leg04 0.000000 0.000000 0.000000 0.000000 0.000000 0.000000 10.000000 
Rear_Foot 0.000000 0.000000 0.000000 0.000000 0.000000 0.000000 10.000000 
planeAlignerCenter 0.000000 0.000000 0.000000 0.000000 0.000000 0.000000 10.000000 
Rear_Toe1_01 0.000000 0.000000 0.000000 0.000000 0.000000 0.000000 10.000000 
Rear_Toe2_01 0.000000 0.000000 0.000000 0.000000 0.000000 0.000000 10.000000 
Rear_Toe3_01 0.000000 0.000000 0.000000 0.000000 0.000000 0.000000 10.000000 
planeLockWeightCenter 0.000000 0.000000 0.000000 0.000000 0.000000 0.000000 10.000000 
Rear_Toe1_02 0.000000 0.000000 0.000000 0.000000 0.000000 0.000000 10.000000 
Rear_Toe1_03 0.000000 0.000000 0.000000 0.000000 0.000000 0.000000 10.000000 
Rear_Toe2_02 0.000000 0.000000 0.000000 0.000000 0.000000 0.000000 10.000000 
Rear_Toe2_03 0.000000 0.000000 0.000000 0.000000 0.000000 0.000000 10.000000 
Rear_Toe3_02 0.000000 0.000000 0.000000 0.000000 0.000000 0.000000 10.000000 
Rear_Toe3_03 0.000000 0.000000 0.000000 0.000000 0.000000 0.000000 10.000000 
Back_Bone 0.000000 0.000000 0.000000 0.000000 0.000000 0.000000 10.000000 
Head 0.000000 0.000000 0.000000 0.000000 0.000000 0.000000 10.000000 
Motor_Bone 0.000000 0.000000 0.000000 0.000000 0.000000 0.000000 10.000000 
Ping_Mechanism 0.000000 0.000000 0.000000 0.000000 0.000000 0.000000 10.000000 
BN_LookIK 0.000000 0.000000 0.000000 0.000000 0.000000 0.000000 10.000000 
bottomMouth 0.000000 0.000000 0.000000 0.000000 0.000000 0.000000 10.000000 
L_Mouth01 0.000000 0.000000 0.000000 0.000000 0.000000 0.000000 10.000000 
L_mouthFront 0.000000 0.000000 0.000000 0.000000 0.000000 0.000000 10.000000 
mouthGun 0.000000 0.000000 0.000000 0.000000 0.000000 0.000000 10.000000 
R_Mouth01 0.000000 0.000000 0.000000 0.000000 0.000000 0.000000 10.000000 
R_mouthFront 0.000000 0.000000 0.000000 0.000000 0.000000 0.000000 10.000000 
TopMouth 0.000000 0.000000 0.000000 0.000000 0.000000 0.000000 10.000000 
weapon_bone 0.000000 0.000000 0.000000 0.000000 0.000000 0.000000 10.000000 
#Beginning of Data. Separated by tabs
#Fr	Tx	Ty	Tz	Rx	Ry	Rz	SF
[Pinger_Root]
41 -0.000020 2500.000000 0.000000 -0.000075 -0.000000 -0.000020 2500.000000
42 -0.000020 2500.000000 0.000000 -0.000075 -0.000000 -0.000020 2500.000000
43 -0.000020 2500.000000 0.000000 -0.000075 -0.000000 -0.000020 2500.000000
[Pelvis]
41 -22.650946 1185.449097 4412.199219 -112.659302 -74.940445 127.051903 4568.730957
42 12.437467 1210.400269 4411.471191 -111.599236 -73.704155 123.233337 4574.527832
43 47.525875 1235.351196 4410.743652 -110.887299 -72.452179 119.754295 4580.721680
[L_Hip]
41 5.766392 125.831482 872.656799 -178.253311 -81.787758 87.381340 881.701050
42 5.766392 125.831482 872.656799 -178.253311 -81.787758 87.381340 881.701050
43 5.766392 125.831482 872.656799 -178.253311 -81.787758 87.381340 881.701050
[R_Hip]
41 5.765438 125.836372 -872.654907 -1.746690 81.787712 87.381248 881.699829
42 5.765438 125.836372 -872.654907 -1.746690 81.787712 87.381248 881.699829
43 5.765438 125.836372 -872.654907 -1.746690 81.787712 87.381248 881.699829
[Rear_Leg01]
41 -192.298416 -925.602966 -0.001907 162.887589 -14.980560 -177.129608 945.367432
42 -192.298416 -925.602966 -0.001907 160.343994 -14.112133 -177.383041 945.367432
43 -192.298416 -925.602966 -0.001907 157.807266 -13.255923 -177.674713 945.367432
[Spine1]
41 290.604584 5.007505 0.000477 -12.645643 12.927299 16.651735 290.647736
42 290.604584 5.007505 0.000477 -9.944056 11.679674 14.972236 290.647736
43 290.604584 5.007505 0.000477 -7.587353 10.412072 13.139156 290.647736
[L_Leg01]
41 761.932007 -0.002384 -0.069261 61.430088 -53.793739 -53.440826 761.932068
42 761.932007 -0.002384 -0.069261 52.295151 -57.068756 -45.509544 761.932068
43 761.932007 -0.002384 -0.069261 38.798195 -59.729931 -32.644920 761.932068
[L_Leg02]
41 1441.140503 -0.000954 -0.000715 7.273328 2.134760 -146.970718 1441.140503
42 1441.140503 -0.000954 -0.000715 5.917634 0.891377 -143.690903 1441.140503
43 1441.140503 -0.000954 -0.000715 4.441969 0.113004 -139.436798 1441.140503
[L_Leg03]
41 1686.963989 -0.000715 -0.000954 -0.100709 0.060320 138.148575 1686.963989
42 1686.963989 -0.000715 -0.000954 -0.077139 0.042045 131.136841 1686.963989
43 1686.963989 -0.000715 -0.000954 -0.051515 0.026784 124.125084 1686.963989
[L_Foot]
41 3041.570068 -30.715107 11.297464 8.507550 5.672298 70.654610 3041.746094
42 3041.570068 -30.715107 11.297464 8.318918 5.224049 71.928337 3041.746094
43 3041.570068 -30.715107 11.297464 3.018559 5.249545 60.960907 3041.746094
[L_Toe1_01]
41 -188.216690 -224.732346 -21.137953 89.053467 -2.773544 -138.037842 293.899567
42 -188.216690 -224.732346 -21.137953 89.167297 -3.106468 -137.455353 293.899567
43 -188.216690 -224.732346 -21.137953 89.741364 -4.748958 -151.071823 293.899567
[L_Toe2_01]
41 200.746536 -219.926590 148.838394 -73.828064 -4.081069 -71.980568 332.896027
42 200.746536 -219.926590 148.838394 -73.917427 -4.236312 -71.306534 332.896027
43 200.746536 -219.926590 148.838394 -74.849266 -8.340028 -61.301502 332.896027
[L_Toe3_01]
41 188.832520 -219.859131 -191.078659 -110.070251 2.879233 -72.829330 347.140900
42 188.832520 -219.859131 -191.078659 -109.802795 2.407125 -72.046661 347.140900
43 188.832520 -219.859131 -191.078659 -109.936653 10.658829 -64.303452 347.140900
[planeAlignerLeft]
41 159.247574 -767.629883 5.897538 0.000000 -89.884651 -90.107910 783.996338
42 181.461441 -766.117859 10.442130 0.000000 -89.881310 -90.110580 787.384155
43 184.201904 -758.149780 18.366501 0.000000 -89.871796 -90.113220 780.422180
[L_Toe1_02]
41 413.761139 0.000477 0.000000 0.001479 -15.019801 0.001479 413.761139
42 413.761139 0.000477 0.000000 0.001484 -14.528094 0.001484 413.761139
43 413.761139 0.000477 0.000000 0.001436 -19.659698 0.001436 413.761139
[L_Toe1_03]
41 464.317322 0.000358 -0.000089 -179.997650 73.951248 -179.994125 464.317322
42 464.317322 0.000358 -0.000089 -179.998001 72.485817 -179.994461 464.317322
43 464.317322 0.000358 -0.000089 -179.961456 88.365181 -179.957962 464.317322
[L_Toe2_02]
41 342.235809 -0.000477 0.000238 0.001182 -76.305534 0.001182 342.235809
42 342.235809 -0.000477 0.000238 0.001183 -75.848061 0.001183 342.235809
43 342.235809 -0.000477 0.000238 0.001190 -70.737686 0.001190 342.235809
[L_Toe2_03]
41 420.210846 -0.000715 0.000000 -179.992767 82.668404 -179.989258 420.210846
42 420.210846 -0.000715 0.000000 -179.989944 84.423676 -179.986435 420.210846
43 420.210846 -0.000715 0.000000 0.015468 81.297302 0.015468 420.210846
[L_Toe3_02]
41 329.270111 0.000954 0.000000 0.001178 -80.360451 0.001178 329.270111
42 329.270111 0.000954 0.000000 0.001178 -80.001717 0.001178 329.270111
43 329.270111 0.000954 0.000000 0.001179 -79.331955 0.001179 329.270111
[L_Toe3_03]
41 439.137451 -0.001907 0.000954 -179.995697 79.095154 -179.992188 439.137451
42 439.137451 -0.001907 0.000954 -179.994827 80.471703 -179.991333 439.137451
43 439.137451 -0.001907 0.000954 -179.992523 82.857544 -179.989029 439.137451
[planeLockWeightLeft]
41 156.247620 -0.000305 -0.000229 -0.011826 -0.004376 0.005620 156.247620
42 499.994873 -0.000000 -0.000191 -0.011826 -0.004376 0.005620 499.994873
43 843.744995 0.000305 -0.000153 -0.011826 -0.004376 0.005620 843.744995
[R_Leg01]
41 761.455627 -0.001907 -0.000358 138.224045 -24.596785 55.314587 761.455688
42 761.455627 -0.001907 -0.000358 138.121567 -29.164614 54.585426 761.455688
43 761.455627 -0.001907 -0.000358 137.884079 -33.159492 54.062649 761.455688
[R_Leg02]
41 1441.140625 0.000000 -0.000238 -0.302776 -0.004785 -122.393219 1441.140625
42 1441.140625 0.000000 -0.000238 -0.355581 -0.012356 -125.144829 1441.140625
43 1441.140625 0.000000 -0.000238 -0.406155 -0.021355 -127.274239 1441.140625
[R_Leg03]
41 1686.963989 0.000954 0.001431 0.031586 -0.013055 118.432709 1686.963989
42 1686.963989 0.000954 0.001431 0.034700 -0.014841 119.250870 1686.963989
43 1686.963989 0.000954 0.001431 0.037788 -0.016671 120.068977 1686.963989
[R_Foot]
41 3041.560059 -30.531288 -11.204481 19.108036 -5.906341 58.465130 3041.734131
42 3041.560059 -30.531288 -11.204481 17.887430 -5.609252 58.750774 3041.734131
43 3041.560059 -30.531288 -11.204481 16.668938 -5.306184 59.029850 3041.734131
[planeAlignerRight]
41 -41.850914 -759.418823 -109.147552 0.000000 -89.878052 -90.081230 768.362976
42 -40.171535 -783.997009 -96.615952 0.000000 -89.874886 -90.083138 790.948608
43 -37.702061 -800.902588 -84.823021 0.000000 -89.871796 -90.085030 806.263855
[R_Toe1_01]
41 -188.383347 -224.864899 21.052242 91.042793 0.993807 -148.732010 294.101532
42 -188.383347 -224.864899 21.052242 91.076958 0.393931 -146.765091 294.101532
43 -188.383347 -224.864899 21.052242 91.075844 -0.154895 -145.472580 294.101532
[R_Toe2_01]
41 200.637817 -220.002121 -148.787384 -101.620415 3.571565 -53.082283 332.857574
42 200.637817 -220.002121 -148.787384 -101.642395 2.746031 -54.220253 332.857574
43 200.637817 -220.002121 -148.787384 -101.601639 2.037142 -54.927959 332.857574
[R_Toe3_01]
41 188.606735 -220.092957 191.126343 -60.180553 -30.513477 -69.085358 347.192566
42 188.606735 -220.092957 191.126343 -59.700012 -30.049841 -70.551468 347.192566
43 188.606735 -220.092957 191.126343 -59.381077 -29.856895 -71.421326 347.192566
[planeLockWeightRight]
41 1000.000000 0.000305 -0.000432 -0.011823 -0.004379 -0.000027 1000.000000
42 1000.000000 0.000305 -0.000432 -0.011823 -0.004379 -0.000027 1000.000000
43 1000.000000 0.000305 -0.000432 -0.011823 -0.004379 -0.000027 1000.000000
[R_Toe1_02]
41 413.762085 0.000477 -0.000119 0.001385 -25.870827 0.001385 413.762085
42 413.762085 0.000477 -0.000119 0.001386 -25.671354 0.001386 413.762085
43 413.762085 0.000477 -0.000119 0.001388 -25.471878 0.001388 413.762085
[R_Toe1_03]
41 464.317810 0.000000 0.001088 0.003321 48.594135 0.003321 464.317810
42 464.317810 0.000000 0.001088 0.003062 44.933464 0.003062 464.317810
43 464.317810 0.000000 0.001088 0.002920 42.604305 0.002920 464.317810
[R_Toe2_02]
41 342.234741 -0.000954 0.000238 0.001200 -65.713524 0.001200 342.234741
42 342.234741 -0.000954 0.000238 0.001204 -64.152138 0.001204 342.234741
43 342.234741 -0.000954 0.000238 0.001208 -62.590782 0.001208 342.234741
[R_Toe2_03]
41 420.210846 0.000715 -0.000268 -0.005193 70.650764 -0.001646 420.210846
42 420.210846 0.000715 -0.000268 -0.004728 67.492729 -0.001162 420.210846
43 420.210846 0.000715 -0.000268 -0.004449 65.024101 -0.000867 420.210846
[R_Toe3_02]
41 329.270355 -0.000477 -0.000954 -0.000582 -71.986549 -0.000582 329.270355
42 329.270355 -0.000477 -0.000954 -0.001472 -69.832130 -0.001472 329.270355
43 329.270355 -0.000477 -0.000954 -0.002368 -67.679146 -0.002368 329.270355
[R_Toe3_03]
41 439.137939 0.000238 0.001431 0.010833 77.561501 0.010833 439.137939
42 439.137939 0.000238 0.001431 0.007912 72.940331 0.007912 439.137939
43 439.137939 0.000238 0.001431 0.006463 69.076286 0.006463 439.137939
[Rear_Leg02]
41 1162.777710 -0.029802 0.005960 -41.322742 26.582981 -156.500946 1162.777710
42 1162.777710 -0.029802 0.005960 -40.836414 27.539761 -154.679443 1162.777710
43 1162.777710 -0.029802 0.005960 -40.311436 28.482180 -152.832672 1162.777710
[Rear_Leg03]
41 607.192505 -0.013351 -0.073195 0.010065 -0.005903 77.137024 607.192505
42 607.192505 -0.013351 -0.073195 0.010086 -0.005868 76.737572 607.192505
43 607.192505 -0.013351 -0.073195 0.010106 -0.005833 76.338089 607.192505
[Rear_Leg04]
41 995.874512 -0.020504 -0.011921 -0.043159 -0.017385 90.276741 995.874573
42 995.874512 -0.020504 -0.011921 -0.042962 -0.017861 89.008804 995.874573
43 995.874512 -0.020504 -0.011921 -0.042781 -0.018294 87.851746 995.874573
[Rear_Foot]
41 3096.176270 -0.067472 -0.041425 85.149109 44.789982 -96.429337 3096.176270
42 3096.176270 -0.067472 -0.041425 84.927521 44.732601 -96.753563 3096.176270
43 3096.176270 -0.067472 -0.041425 84.706635 44.674332 -97.077133 3096.176270
[planeAlignerCenter]
41 1.812301 86.198555 -712.444702 0.001666 -0.001653 179.548279 717.642639
42 1.474462 86.604530 -710.392944 0.001663 -0.001656 179.773315 715.653992
43 1.136632 87.010490 -708.341248 0.001660 -0.001660 179.998337 713.666199
[Rear_Toe1_01]
41 0.653352 83.966492 -371.173737 0.046856 22.655176 89.545380 380.553192
42 0.653352 83.966492 -371.173737 0.052524 22.530197 89.786217 380.553192
43 0.653352 83.966492 -371.173737 0.057613 22.405191 90.026802 380.553192
[Rear_Toe2_01]
41 178.200760 -294.826019 -362.060547 0.974356 47.368851 -70.394386 499.765686
42 178.200760 -294.826019 -362.060547 1.089529 47.085663 -69.720078 499.765686
43 178.200760 -294.826019 -362.060547 1.114526 47.008190 -69.541580 499.765686
[Rear_Toe3_01]
41 -153.359680 -308.780914 -362.060852 -1.505571 47.315495 -113.647606 499.952881
42 -153.359680 -308.780914 -362.060852 -1.443126 47.169308 -113.310692 499.952881
43 -153.359680 -308.780914 -362.060852 -1.382123 47.022869 -112.974945 499.952881
[planeLockWeightCenter]
41 1000.000488 0.000640 -0.000092 -0.011814 -0.004373 -0.000015 1000.000488
42 1000.000488 0.000648 -0.000091 -0.011814 -0.004373 -0.000015 1000.000488
43 1000.000488 0.000655 -0.000090 -0.011814 -0.004373 -0.000015 1000.000488
[Rear_Toe1_02]
41 379.707825 0.194073 0.000477 -0.004349 -33.545074 0.003044 379.707855
42 379.707825 0.194073 0.000477 -0.004349 -33.544090 0.003044 379.707855
43 379.707825 0.194073 0.000477 -0.004349 -33.543106 0.003044 379.707855
[Rear_Toe1_03]
41 500.129700 0.165701 0.000119 0.006988 70.662827 0.006988 500.129761
42 500.129700 0.165701 0.000119 0.007017 70.744759 0.007017 500.129761
43 500.129700 0.165701 0.000119 0.007047 70.826614 0.007047 500.129761
[Rear_Toe2_02]
41 340.494507 0.000238 -0.000954 0.001175 -85.434464 0.001175 340.494507
42 340.494507 0.000238 -0.000954 0.001174 -85.734879 0.001174 340.494507
43 340.494507 0.000238 -0.000954 0.001174 -85.788765 0.001174 340.494507
[Rear_Toe2_03]
41 433.103577 0.000000 0.000238 179.986755 79.836098 179.986755 433.103546
42 433.103577 0.000000 0.000238 179.987396 79.316963 179.987396 433.103546
43 433.103577 0.000000 0.000238 179.987549 79.182114 179.987549 433.103546
[Rear_Toe3_02]
41 340.494141 -0.000358 -0.000477 0.001175 -85.519089 0.001175 340.494171
42 340.494141 -0.000358 -0.000477 0.001174 -85.603416 0.001174 340.494171
43 340.494141 -0.000358 -0.000477 0.001174 -85.687569 0.001174 340.494171
[Rear_Toe3_03]
41 433.103577 0.001431 -0.000238 -179.995178 79.977638 -179.991653 433.103546
42 433.103577 0.001431 -0.000238 -179.995438 79.567734 -179.991913 433.103546
43 433.103577 0.001431 -0.000238 -179.995499 79.458351 -179.991989 433.103546
[Back_Bone]
41 1312.175781 -701.934692 0.000954 -1.873884 3.184464 -86.519646 1488.125488
42 1312.175781 -701.934692 0.000954 -1.286546 3.196599 -85.322670 1488.125488
43 1312.175781 -701.934692 0.000954 -0.699001 3.196478 -84.125443 1488.125488
[Head]
41 1406.159424 809.709290 0.001431 3.067186 0.516446 1.841181 1622.625488
42 1406.159424 809.709290 0.001431 2.768307 0.780662 2.989355 1622.625488
43 1406.159424 809.709290 0.001431 2.474760 1.050809 4.136224 1622.625488
[Motor_Bone]
41 1158.364380 -417.834747 0.000477 2.270557 -1.149508 -107.133392 1231.419434
42 1158.364380 -417.834747 0.000477 1.115501 -1.114906 -107.103577 1231.419434
43 1158.364380 -417.834747 0.000477 -1.031280 -1.047917 -107.028992 1231.419434
[Ping_Mechanism]
41 1271.319580 -456.578491 -45.482075 0.000103 -0.000053 82.120995 1351.586548
42 1278.900269 -460.387909 -44.460682 0.000103 -0.000053 82.120995 1359.970459
43 1286.481079 -464.197296 -43.439289 0.000103 -0.000053 82.120995 1368.356567
[BN_LookIK]
41 193.241119 1380.371704 -0.002861 0.000000 89.965736 -31.038179 1393.832153
42 193.241119 1380.371704 -0.002861 0.000000 89.965736 -31.038179 1393.832153
43 193.241119 1380.371704 -0.002861 0.000000 89.965736 -31.038179 1393.832153
[bottomMouth]
41 -435.092926 615.759399 -0.000954 -0.000022 0.000016 73.527184 753.966492
42 -435.092926 615.759399 -0.000954 -0.000022 0.000016 73.527184 753.966492
43 -435.092926 615.759399 -0.000954 -0.000022 0.000016 73.527184 753.966492
[L_Mouth01]
41 554.440979 7.658243 838.222046 150.204178 23.759130 109.605339 1005.027161
42 554.440979 7.658243 838.222046 150.204178 23.759130 109.605339 1005.027161
43 554.440979 7.658243 838.222046 150.204178 23.759130 109.605339 1005.027161
[L_mouthFront]
41 551.629089 934.514771 339.150421 0.000081 2.804060 79.119301 1136.941284
42 551.629089 934.514771 339.150421 0.000081 2.804060 79.119301 1136.941284
43 551.629089 934.514771 339.150421 0.000081 2.804060 79.119301 1136.941284
[mouthGun]
41 55.332661 1627.420898 0.000000 0.000023 0.000009 -11.038128 1628.361328
42 55.332661 1627.420898 0.000000 0.000023 0.000009 -11.038128 1628.361328
43 55.332661 1627.420898 0.000000 0.000023 0.000009 -11.038128 1628.361328
[R_Mouth01]
41 554.442383 7.659197 -838.223938 29.795891 -23.759109 109.605331 1005.029541
42 554.442383 7.659197 -838.223938 29.795891 -23.759109 109.605331 1005.029541
43 554.442383 7.659197 -838.223938 29.795891 -23.759109 109.605331 1005.029541
[R_mouthFront]
41 551.629089 934.514282 -339.151367 0.000029 -2.803930 79.119133 1136.941162
42 551.629089 934.514282 -339.151367 0.000029 -2.803930 79.119133 1136.941162
43 551.629089 934.514282 -339.151367 0.000029 -2.803930 79.119133 1136.941162
[TopMouth]
41 461.269867 -56.106091 -0.008583 -0.000059 -0.000268 92.025169 464.669525
42 461.269867 -56.106091 -0.008583 -0.000059 -0.000268 92.025169 464.669525
43 461.269867 -56.106091 -0.008583 -0.000059 -0.000268 92.025169 464.669525
[weapon_bone]
41 -987.239868 1448.372803 0.001431 0.000000 89.965736 -31.038221 1752.833740
42 -987.239868 1448.372803 0.001431 0.000000 89.965736 -31.038221 1752.833740
43 -987.239868 1448.372803 0.001431 0.000000 89.965736 -31.038221 1752.833740
